<svg id="Layer_1" data-name="Layer 1" xmlns="http://www.w3.org/2000/svg" viewBox="0 0 501 501"><defs><style>.cls-1{fill:#fff;}</style></defs><title>cmw-logo</title><rect width="501" height="501"/><path class="cls-1" d="M396.2,380.19c-33.52,33.58-79.6,54.59-130.69,54.59-102.16,0-185.28-83.11-185.28-185.28S163.34,64.22,265.51,64.22c51.09,0,97.17,21,130.69,54.59l18.34-18.34a209.79,209.79,0,0,0-149-62c-116.56,0-211.05,94.49-211.05,211.05S148.94,460.55,265.5,460.55a209.79,209.79,0,0,0,149-62Z" transform="translate(1 1)"/><polygon class="cls-1" points="382.49 250.54 333.55 378.34 281.43 242.27 335.83 100.25 335.83 250.54 361.6 250.54 361.6 77.03 317.12 77.03 267.63 206.24 218.14 77.03 173.66 77.03 173.66 250.54 199.44 250.54 199.44 100.25 253.83 242.27 201.72 378.34 152.76 250.54 125.17 250.54 191.27 423.13 212.16 423.13 267.63 278.3 323.1 423.13 343.99 423.13 410.09 250.54 382.49 250.54"/></svg>