<svg id="Layer_1" data-name="Layer 1" xmlns="http://www.w3.org/2000/svg" viewBox="0 0 70 70"><defs><style>.cls-1,.cls-2{fill:#fff;}.cls-1{stroke:#fff;stroke-miterlimit:10;stroke-width:0.48px;}</style></defs><title>cmw-logo</title><rect width="70" height="70"/><path class="cls-1" d="M45.39,55.6h.09L53.86,35.5h3L47.1,58.7H43.9L36.79,38.2h-.08L29.6,58.7H26.4L16.79,35.5h2.9L28,55.6h.09L35.57,35H38Z"/><path class="cls-1" d="M24,35V11.32h3.91L36.81,32.2h.08L45.6,11.32h3.87V35H46.91V13.88h-.08L38,35h-2.4l-8.9-21.12h-.08V35Z"/><path class="cls-2" d="M55.5,53.26a25.89,25.89,0,1,1,0-36.52l2.56-2.56A29.47,29.47,0,1,0,37.24,64.49a29.31,29.31,0,0,0,20.82-8.66Z"/></svg>